<svg xmlns="http://www.w3.org/2000/svg" viewBox="0 0 64 64" role="img" aria-label="Driving simulator icon">
  <defs>
    <linearGradient id="g" x1="0" x2="1" y1="0" y2="1">
      <stop offset="0" stop-color="#7b61ff" stop-opacity=".9"/>
      <stop offset="1" stop-color="#48c9ff" stop-opacity=".85"/>
    </linearGradient>
  </defs>
  <rect x="6" y="6" width="52" height="52" rx="16" fill="url(#g)"/>
  <path d="M34 17c-9 0-16 7-16 16 0 4 1 7 3 10l-3 4h8l1-2c2 1 4 2 7 2 9 0 16-7 16-16s-7-16-16-16zm0 6c6 0 10 4 10 10s-4 10-10 10c-2 0-4-.5-6-1.7l-1-.7-1.1 2.4h-1.7l.8-1.1-1.2-1.8c-1.3-1.9-1.8-3.8-1.8-5.9 0-6 4-10 10-10z" fill="#0b0e14" fill-opacity=".95"/>
  <path d="M34 27a5 5 0 1 0 0 10 5 5 0 0 0 0-10zm0 3a2 2 0 1 1 0 4 2 2 0 0 1 0-4z" fill="#0b0e14" fill-opacity=".9"/>
</svg>
